# xmcd
#
# Track frame offsets:
#	150
#	10952
#	26305
#	47256
#	64246
#	82795
#	101959
#	118056
#	134696
#	150614
#	168443
#	184304
#
# Disc length: 2750 seconds
#
# Revision: 1
# Processed by: cddbd v1.5.2PL0 Copyright (c) Steve Scherf et al.
# Submitted via: audiograbber 1.83.01
#
DISCID=980abc0c
DTITLE=The Wardens - Sleeping Buffalo
DYEAR=2017
DGENRE=Country
TTITLE0=Government Cowboy
TTITLE1=The Ballad of Bill Neish
TTITLE2=Lantern Heart
TTITLE3=Troop Train
TTITLE4=Wheels on the Wildlife Trap
TTITLE5=Across the River
TTITLE6=I Can Hear Alberta
TTITLE7=Backfire
TTITLE8=WTF (Warden of the Future)
TTITLE9=Sleeping Buffalo
TTITLE10=Suicide Bridle
TTITLE11=Ya Ha Tinda Bound
EXTD=
EXTT0=
EXTT1=
EXTT2=
EXTT3=
EXTT4=
EXTT5=
EXTT6=
EXTT7=
EXTT8=
EXTT9=
EXTT10=
EXTT11=
PLAYORDER=
